PathFileType	4	(X/Y/Z)	C:\Users\chris\Documents\GitHub\baseballds\vids\pitch5_Sports2D\pitch5_Sports2D_px_person04.trc
DataRate	CameraRate	NumFrames	NumMarkers	Units	OrigDataRate	OrigDataStartFrame	OrigNumFrames
30	30	9	22	m	30	55	149
Frame#	Time	Hip			RHip			RKnee			RAnkle			RBigToe			RSmallToe			RHeel			LHip			LKnee			LAnkle			LBigToe			LSmallToe			LHeel			Neck			Head			Nose			RShoulder			RElbow			RWrist			LShoulder			LElbow			LWrist		
		X1	Y1	Z1	X2	Y2	Z2	X3	Y3	Z3	X4	Y4	Z4	X5	Y5	Z5	X6	Y6	Z6	X7	Y7	Z7	X8	Y8	Z8	X9	Y9	Z9	X10	Y10	Z10	X11	Y11	Z11	X12	Y12	Z12	X13	Y13	Z13	X14	Y14	Z14	X15	Y15	Z15	X16	Y16	Z16	X17	Y17	Z17	X18	Y18	Z18	X19	Y19	Z19	X20	Y20	Z20	X21	Y21	Z21	X22	Y22	Z22
55	1.8333333333333333	1258.9491441160044	454.86389650486274	0.0	1255.9637309817697	455.228562188106	0.0	1253.9522726530836	465.73228818787186	0.0	1253.2196668920433	476.54956768502274	0.0	1250.5623381339674	478.87150946887806	0.0	1249.6325695842443	478.707366901343	0.0	1254.1753509767323	477.89612851932355	0.0	1261.989868245223	455.620089534441	0.0	1261.8096363758577	466.8403895733855	0.0	1262.8859397171072	478.0283127532114	0.0	1260.2488522562317	479.64048862756897	0.0	1262.9217141518686	477.18471193783876	0.0	1263.3571973204807	478.5642080946173	0.0	1262.1430429398454	437.88912281015837	0.0	1263.3354544918384	429.2906711824031	0.0	1262.082822752883	434.5010886857847	0.0	1258.2777515460634	438.8818311739836	0.0	1253.678306266535	443.17517795018915	0.0	1249.3018393862571	442.4458669965991	0.0	1264.92139999395	439.19641760412367	0.0	1261.8986109331822	442.68769027522933	0.0	1250.4291945954924	441.98201088263437	0.0
56	1.8666666666666667	1261.648569532995	457.58204899968064	0.0	1258.6972490909504	457.9760485662508	0.0	1256.5770936345816	467.740668330224	0.0	1257.4209853184502	478.5822246597163	0.0	1254.8944925092214	481.30227829188743	0.0	1254.058346078105	481.1079024986495	0.0	1258.76840033084	480.24570137402054	0.0	1264.7336599577716	458.2725072439272	0.0	1264.5351484483547	469.2240303103733	0.0	1265.1356073199831	480.6824509709407	0.0	1262.043854378849	482.4116653294966	0.0	1263.0964755283073	479.3812296251176	0.0	1265.9960182485147	481.18198901576994	0.0	1264.8138218520123	440.6089785918208	0.0	1265.0271692801518	431.5625503533187	0.0	1264.2161295010033	436.8112476677031	0.0	1261.1890196289714	441.6133688245351	0.0	1257.7929245216071	446.86150300797954	0.0	1253.5940779779075	448.4579630980139	0.0	1267.664813637451	441.84812334830735	0.0	1264.1712047269768	446.90026259394665	0.0	1254.4953818751212	448.2604061839403	0.0
57	1.9	1263.7161413450785	459.5085249042082	0.0	1260.7875578916173	459.867843403007	0.0	1258.6949278343218	469.2508012897814	0.0	1260.584327213791	480.2200269747613	0.0	1257.7124782170017	483.1383298947106	0.0	1257.3042653573264	482.75543650126025	0.0	1262.2866412046285	482.0412523363907	0.0	1266.8479776007134	460.10229381852406	0.0	1266.6547473341159	471.0156329774002	0.0	1266.8887450651346	482.45809060086276	0.0	1263.9478303655533	484.29534099314577	0.0	1263.8638211868397	482.37356446439685	0.0	1267.9681779656148	482.95839397620193	0.0	1266.801376974824	442.46308460141694	0.0	1266.3035650677714	433.2839971439165	0.0	1265.7550054926544	438.4820222135985	0.0	1263.2405790562975	443.7242626592369	0.0	1260.6959035279242	449.8567055815929	0.0	1256.9901396809066	453.37175811277956	0.0	1269.7411988408508	443.7674787541839	0.0	1266.2192687042552	450.2343160259518	0.0	1258.0332345231582	453.6527526924011	0.0
58	1.9333333333333333	1264.629840818992	460.00285796063554	0.0	1261.8102180244146	460.30195323255185	0.0	1259.8826737136733	469.8644365836226	0.0	1261.7488841209777	480.91748618189536	0.0	1258.4759100879332	483.7538370644465	0.0	1258.4357105534843	483.21210920649577	0.0	1263.5654193930357	482.7395983742064	0.0	1267.6494089821176	460.5209815763461	0.0	1267.4819674807259	471.5225097978891	0.0	1267.6297651264724	482.6966971050914	0.0	1265.0398029852904	484.57730896026857	0.0	1265.0818812579384	484.1498852043871	0.0	1268.7117360235952	483.23053232140364	0.0	1267.5009228097542	442.9087657608796	0.0	1266.8128659691483	434.0578136925003	0.0	1266.195038854142	439.0427444116792	0.0	1263.891532115973	444.6588433280923	0.0	1261.7478822965136	451.13602045086634	0.0	1258.6369874459583	455.7248022560036	0.0	1270.5153664696115	444.4743983083174	0.0	1267.7237273889773	451.62648244936514	0.0	1260.3791363094244	456.452666678462	0.0
59	1.9666666666666666	1265.0285399534323	459.93296790046367	0.0	1262.3810602385404	460.23646779498415	0.0	1260.845288599556	470.19727695558925	0.0	1262.0638272516821	481.06191217729315	0.0	1258.8439279609215	483.67059562228326	0.0	1258.6319171601301	483.1224793897733	0.0	1263.7743402499168	482.8567057511327	0.0	1267.7816059615132	460.4531212740363	0.0	1267.648552737788	471.3686355877306	0.0	1267.9114789817343	482.28683527355986	0.0	1265.209369957847	484.0749775411338	0.0	1265.9542393494203	484.21527764592395	0.0	1268.9515245007856	482.8759307787284	0.0	1267.5845212818429	442.9107167844167	0.0	1266.9433725501056	434.40325010352984	0.0	1266.1680911343337	439.1692718341327	0.0	1263.9327118401452	445.08052953413187	0.0	1262.102724009715	451.4847587375693	0.0	1259.3615523483754	456.79074391576125	0.0	1270.7397347252904	444.785635574705	0.0	1269.2193065146203	452.1151978968453	0.0	1262.4838072696994	457.81113098875875	0.0
60	2.0	1265.2978969711378	460.2135670418794	0.0	1262.7058306171193	460.59353384991124	0.0	1261.9051996918147	470.8906087019259	0.0	1262.5628482200873	481.24925261349495	0.0	1259.5869025371726	483.5824841737168	0.0	1258.8519959037765	483.0485095393617	0.0	1264.0823375545403	482.91751688076033	0.0	1267.8992277179266	460.81152149848515	0.0	1267.7906351961367	471.51726414252863	0.0	1268.2182008088487	482.24106716719876	0.0	1265.3448715120576	483.798467434402	0.0	1266.0576250814333	483.7944055242695	0.0	1269.2335512344084	482.83301956757333	0.0	1267.5816949405494	443.1970029955147	0.0	1267.0181470154862	434.7387289199357	0.0	1266.223962823574	439.42490365593045	0.0	1263.8411273645283	445.47324975796	0.0	1262.1934648307379	451.81788310643424	0.0	1259.5922922332552	457.79958380530314	0.0	1271.0603645812105	445.2430158684637	0.0	1270.8590873147816	452.79823851377665	0.0	1265.3418293135733	459.143976839236	0.0
61	2.033333333333333	1265.4063066824333	460.996512196783	0.0	1262.6672073482937	461.45325212409534	0.0	1262.7633706222653	471.94939980367053	0.0	1263.2326601996028	481.7648261096573	0.0	1260.4004916785432	483.86145384797385	0.0	1259.2207493063565	483.25299967759895	0.0	1264.6056559203532	483.143719429223	0.0	1268.1139863195879	461.68002658797303	0.0	1267.9914250041788	472.2691065407668	0.0	1268.52844278716	482.7990434544649	0.0	1265.9998634407189	484.15130539242796	0.0	1265.9816760794763	483.8527738997544	0.0	1269.473328262972	483.3068857268388	0.0	1267.489260021272	443.68559372248075	0.0	1267.0714357490544	435.15762812896565	0.0	1266.3356544256635	439.85308878567156	0.0	1263.5679637835908	445.85082121093274	0.0	1261.6583751232204	452.3512814317844	0.0	1259.2022128278657	458.8839592244129	0.0	1271.419629449576	445.77291720773974	0.0	1272.2845307733473	453.74420822934934	0.0	1269.0219731954826	460.6780929133626	0.0
62	2.0666666666666664	1265.440599339266	461.9075256423155	0.0	1262.486457566995	462.41642149384154	0.0	1263.3070063945534	472.91716182810677	0.0	1263.793858822783	482.51749063736855	0.0	1261.2822479692195	484.52262084554866	0.0	1259.7501848324387	483.8958195695869	0.0	1265.1527689864015	483.6631676854704	0.0	1268.3382369950525	462.6290597279209	0.0	1268.1762979753682	473.15644301530097	0.0	1268.734072389926	483.5971758873395	0.0	1266.5623151710515	484.9359062085332	0.0	1266.268724997388	484.40906763254463	0.0	1269.5981995751993	484.0333031612464	0.0	1267.309297151222	444.1621734396577	0.0	1267.1079990082726	435.5726326711117	0.0	1266.3966037509865	440.3059551102906	0.0	1263.1880896718392	446.24191241267033	0.0	1260.6947022163677	452.97334729705415	0.0	1258.4019896374555	459.87187952671985	0.0	1271.6173415421688	446.2885759250839	0.0	1273.350660784358	454.52201754598684	0.0	1272.6242920292414	461.970673190471	0.0
63	2.1	1265.560395981898	462.5515365540792	0.0	1262.486012851834	463.10952539560475	0.0	1263.7301522314972	473.49482081184163	0.0	1264.2380415999319	483.24513559815205	0.0	1262.2847079614226	485.2690068719112	0.0	1260.3745301447273	484.80487595328225	0.0	1265.679611225364	484.38415276329397	0.0	1268.5634762753011	463.25329004795043	0.0	1268.3811459729798	473.6861869117407	0.0	1268.929587130208	484.24406602323256	0.0	1266.350698354574	485.68975810528	0.0	1266.7100426419331	485.0787691956254	0.0	1269.785191548455	484.70628016106906	0.0	1267.1877010695403	444.55698940993494	0.0	1267.1913333967261	435.8713732463515	0.0	1266.5036734246744	440.65980041772286	0.0	1262.9250152550267	446.6812009425479	0.0	1259.9930942816395	453.4912935409377	0.0	1257.6693744788363	460.6581052871822	0.0	1271.7031196860103	446.76835072866317	0.0	1274.2380629763002	454.87341362938184	0.0	1275.3904841390124	462.62272472461837	0.0
